<svg width="79" height="52" viewBox="0 0 79 52" fill="none" xmlns="http://www.w3.org/2000/svg">
<g id="Layer_1" clip-path="url(#clip0_688_395)">
<path id="Vector" d="M41.9222 11.5159H40.2197V13.3102H41.9222V11.5159Z" fill="white"/>
<path id="Vector_2" d="M41.9222 13.9855H40.2197V15.7779H41.9222V13.9855Z" fill="white"/>
<path id="Vector_3" d="M44.267 11.5159H42.5645V13.3102H44.267V11.5159Z" fill="white"/>
<path id="Vector_4" d="M44.267 13.9855H42.5645V15.7779H44.267V13.9855Z" fill="white"/>
<path id="Vector_5" fill-rule="evenodd" clip-rule="evenodd" d="M33.8919 20.2063C32.5801 19.3746 31.501 18.2234 30.7559 16.8606C30.0108 15.4978 29.624 13.9681 29.6318 12.4149C29.6318 7.38199 33.605 3.29979 38.504 3.29979C39.6709 3.30157 40.8256 3.53711 41.8999 3.99248C42.9743 4.44785 43.9465 5.11383 44.7593 5.95111C43.8894 4.90647 42.8015 4.06481 41.5718 3.48519C40.3422 2.90556 39.0006 2.60201 37.6412 2.59583C32.3711 2.59583 28.0957 7.09887 28.0957 12.654C28.0957 17.4153 31.2387 21.4057 35.4567 22.4463V20.9772L35.4165 13.6335L42.4771 7.80092L48.4072 12.8109L49.2987 13.5646H49.9548L48.3862 11.9176L42.4771 5.712L37.6948 9.72916V8.74591H35.4701V11.5904L31.1067 15.2595L33.9206 15.2422L33.8919 20.2063Z" fill="white"/>
<path id="Vector_6" d="M52.1298 26.0542C51.927 25.9107 47.8984 23.1274 43.9673 24.4435C43.9616 24.4446 43.9558 24.4446 43.9501 24.4435C42.1481 25.0461 40.5068 25.4975 38.8444 25.5702C38.7985 25.5702 38.7488 25.5702 38.7029 25.5702C37.2599 25.5777 35.8262 25.3383 34.4638 24.8624C33.6457 24.5543 32.8537 24.1807 32.0956 23.7453C32.0956 23.7453 32.0956 23.7453 32.0841 23.7453C29.7806 22.3567 27.973 20.2777 26.9181 17.8034C25.8632 15.3292 25.6145 12.5855 26.2074 9.96195C26.8004 7.33839 28.2047 4.96829 30.2211 3.18817C32.2375 1.40806 34.7635 0.308416 37.4403 0.045374C40.1171 -0.217668 42.8088 0.369263 45.1332 1.72283C47.4575 3.0764 49.2963 5.1278 50.3886 7.58577C51.4809 10.0437 51.771 12.7833 51.2179 15.4156C50.6648 18.0478 49.2965 20.4389 47.3073 22.2494L46.6339 21.9682C46.533 21.9179 46.4289 21.8744 46.3221 21.8381L45.7023 21.5779C47.8133 19.8863 49.2407 17.4879 49.7209 14.8257C50.201 12.1635 49.7014 9.41752 48.3144 7.09503C46.9274 4.77254 44.7467 3.03051 42.1752 2.19078C39.6037 1.35106 36.8152 1.47038 34.3249 2.52672C31.8345 3.58306 29.8106 5.50501 28.6271 7.9375C27.4436 10.37 27.1804 13.1486 27.8862 15.7601C28.592 18.3715 30.2191 20.6392 32.4669 22.1443C34.7147 23.6494 37.4312 24.2901 40.1146 23.9481C40.1663 23.9481 40.2198 23.9347 40.2715 23.9251C40.8549 23.8452 41.4308 23.7172 41.9931 23.5425L42.1844 23.4851C43.51 23.0705 44.9074 22.9363 46.2877 23.0911C48.5223 23.3629 50.5903 24.4118 52.1298 26.0542Z" fill="#15A7AD"/>
<path id="Vector_7" d="M9.69515 40.0951C9.8061 40.162 9.92088 40.2386 10.0414 40.3265C10.2631 40.4508 10.4932 40.5595 10.73 40.6517C10.7792 40.6659 10.8301 40.6729 10.8812 40.6728C10.9683 40.6717 11.0535 40.6473 11.1279 40.602C11.1885 40.5682 11.2417 40.5225 11.2841 40.4676C11.3265 40.4127 11.3573 40.3497 11.3747 40.2825C11.4024 40.1052 11.419 39.9263 11.4244 39.7469H12.9376C12.9247 40.0632 12.8863 40.378 12.8228 40.6881C12.7538 40.944 12.6335 41.1832 12.469 41.391C12.3046 41.5989 12.0995 41.7711 11.8663 41.8971C11.5727 42.0713 11.2379 42.1638 10.8965 42.1649C10.7025 42.165 10.5094 42.1387 10.3226 42.0864C9.88201 41.9396 9.4651 41.7296 9.08492 41.4628C8.8083 41.3076 8.51982 41.1746 8.22219 41.0649C8.13747 41.0413 8.04998 41.0291 7.96203 41.0286C7.81384 41.0291 7.6685 41.0694 7.54119 41.1453C7.43363 41.2041 7.33948 41.2846 7.26472 41.3818C7.18996 41.4789 7.13623 41.5906 7.10695 41.7096C7.08143 41.868 7.06482 42.0276 7.05721 42.1878H5.546C5.56266 41.8858 5.60102 41.5853 5.66077 41.2888C5.73904 41.0066 5.86875 40.7414 6.04336 40.5064C4.59182 40.2244 3.298 39.4103 2.41564 38.2237C1.53329 37.0371 1.12607 35.5637 1.27384 34.0925C1.42162 32.6212 2.11372 31.2582 3.21443 30.2708C4.31513 29.2834 5.74501 28.7429 7.22364 28.7552C8.39648 28.7552 9.54298 29.103 10.5182 29.7546C11.4933 30.4063 12.2534 31.3324 12.7022 32.416C13.151 33.4995 13.2685 34.6919 13.0397 35.8422C12.8109 36.9925 12.2461 38.0491 11.4168 38.8785C10.9183 39.3813 10.3356 39.7931 9.69515 40.0951ZM7.2179 30.2683C6.49051 30.2673 5.7741 30.4458 5.1322 30.788C4.49031 31.1301 3.94276 31.6254 3.53811 32.2298C3.13345 32.8343 2.8842 33.5292 2.81246 34.2531C2.74071 34.9769 2.84869 35.7073 3.12681 36.3794C3.40493 37.0515 3.8446 37.6447 4.40684 38.1062C4.96908 38.5677 5.63651 38.8833 6.34995 39.0251C7.06339 39.1669 7.80079 39.1305 8.49678 38.919C9.19276 38.7076 9.82582 38.3277 10.3398 37.813C10.9581 37.1951 11.3793 36.4077 11.5501 35.5504C11.7208 34.6931 11.6335 33.8044 11.2991 32.9968C10.9647 32.1891 10.3982 31.4988 9.67143 31.0131C8.94463 30.5275 8.09012 30.2683 7.21599 30.2683H7.2179Z" fill="#15A7AD"/>
<path id="Vector_8" d="M22.7221 28.937H24.4304V38.1937C24.3053 39.2066 23.8462 40.1489 23.1258 40.8718C22.5014 41.4979 21.7053 41.9246 20.8382 42.0981C19.9712 42.2715 19.0722 42.1838 18.255 41.8461C17.4378 41.5083 16.7392 40.9358 16.2476 40.2008C15.7559 39.4659 15.4934 38.6016 15.4932 37.7174V28.937H17.2014V37.7174C17.2014 38.4495 17.4922 39.1516 18.0099 39.6693C18.5276 40.1869 19.2297 40.4777 19.9618 40.4777C20.6939 40.4777 21.396 40.1869 21.9137 39.6693C22.4313 39.1516 22.7221 38.4495 22.7221 37.7174V28.937Z" fill="#15A7AD"/>
<path id="Vector_9" d="M28.7611 29.0421V42.1878H27.0605V29.0421H28.7611Z" fill="#15A7AD"/>
<path id="Vector_10" d="M41.568 38.9168L42.8401 40.0645C41.2855 41.4839 39.6398 42.1936 37.9028 42.1936C36.1216 42.1936 34.4132 41.486 33.1537 40.2264C31.8941 38.9669 31.1865 37.2586 31.1865 35.4773C31.1865 33.696 31.8941 31.9877 33.1537 30.7281C34.4132 29.4686 36.1216 28.761 37.9028 28.761C39.6398 28.761 41.2855 29.47 42.8401 30.8882L41.568 32.0474C40.396 31.0068 39.1743 30.4865 37.9028 30.4865C36.5772 30.4865 35.3058 31.0131 34.3684 31.9505C33.431 32.8879 32.9043 34.1593 32.9043 35.4849C32.9043 36.8106 33.431 38.082 34.3684 39.0194C35.3058 39.9568 36.5772 40.4834 37.9028 40.4834C39.173 40.4796 40.3948 39.9574 41.568 38.9168Z" fill="#15A7AD"/>
<path id="Vector_11" d="M46.5854 35.9842V42.1878H44.8867V29.0421H46.5854V33.1836L49.692 29.0421H51.8498L47.8154 34.4481L52.835 42.1878H50.7671L46.7021 35.8445L46.5854 35.9842Z" fill="#15A7AD"/>
<path id="Vector_12" d="M57.4548 29.0421C58.1875 29.0426 58.8901 29.3334 59.4089 29.8507C59.9276 30.368 60.2203 31.0698 60.2228 31.8025C60.2228 32.5868 59.8288 33.0714 59.0407 33.2563C59.6094 33.3379 60.2566 33.7435 60.9823 34.4729C61.7079 35.2024 62.0707 36.2099 62.0707 37.4954C62.0784 38.1136 61.9626 38.7271 61.73 39.3C61.4974 39.8729 61.1528 40.3936 60.7164 40.8315C59.867 41.7128 59.0151 42.1591 58.1607 42.1706V42.1878H54.7939V29.0421H57.4548ZM56.4984 30.7427V32.8221H57.6079C57.8512 32.804 58.0809 32.7027 58.2583 32.5351C58.3573 32.4415 58.4349 32.3275 58.4858 32.201C58.5366 32.0746 58.5595 31.9386 58.5529 31.8025C58.5577 31.6605 58.5327 31.5191 58.4797 31.3874C58.4267 31.2556 58.3467 31.1364 58.2449 31.0373C58.1408 30.9374 58.0178 30.8594 57.8831 30.8078C57.7484 30.7563 57.6047 30.7322 57.4606 30.737L56.4984 30.7427ZM56.4984 34.5686V40.4738H58.1626V40.4489C58.5133 40.4273 58.9488 40.1454 59.4692 39.6034C59.7463 39.3282 59.9655 39.0002 60.1137 38.6387C60.2619 38.2773 60.3361 37.8898 60.3319 37.4992C60.3316 37.1143 60.2555 36.7332 60.1079 36.3777C59.9602 36.0222 59.7439 35.6993 59.4714 35.4275C59.1988 35.1557 58.8754 34.9402 58.5195 34.7935C58.1637 34.6468 57.7824 34.5717 57.3974 34.5724L56.4984 34.5686Z" fill="white"/>
<path id="Vector_13" d="M65.9086 29.0421V42.1878H64.208V29.0421H65.9086Z" fill="white"/>
<path id="Vector_14" d="M69.7931 29.0421C71.9305 29.0536 73.5954 29.6594 74.7878 30.8594C76.0457 32.1228 76.752 33.833 76.752 35.6159C76.752 37.3988 76.0457 39.109 74.7878 40.3724C73.5941 41.5699 71.9292 42.175 69.7931 42.1878H68.5439V29.0421H69.7931ZM70.2445 30.7771V40.4623C71.5964 40.4623 72.7059 40.0268 73.5731 39.1558C74.508 38.2153 75.0328 36.943 75.0328 35.6169C75.0328 34.2907 74.508 33.0184 73.5731 32.0779C72.7071 31.2107 71.5976 30.7771 70.2445 30.7771Z" fill="white"/>
<path id="Vector_15" d="M13.4193 45.2218V45.5853H10.5499V48.2787H13.4193V48.6421H10.5499V51.3355H13.4193V51.7009H10.1807V45.2218H13.4193Z" fill="white"/>
<path id="Vector_16" d="M17.7996 48.1122C17.3905 47.9903 17.0157 47.7741 16.7054 47.4809C16.4487 47.2232 16.3049 46.874 16.3056 46.5102C16.3063 46.1465 16.4515 45.7979 16.7093 45.5412C16.967 45.2845 17.3161 45.1406 17.6799 45.1414C18.0437 45.1421 18.3923 45.2873 18.649 45.545C18.7907 45.6771 18.8966 45.843 18.957 46.0271L18.6298 46.1571C18.5774 46.0196 18.4958 45.8949 18.3907 45.7918C18.2974 45.6978 18.1862 45.6237 18.0636 45.5737C17.941 45.5238 17.8096 45.499 17.6772 45.501C17.4774 45.5002 17.2818 45.5589 17.1155 45.6696C16.9491 45.7804 16.8196 45.9382 16.7432 46.1228C16.6669 46.3075 16.6473 46.5107 16.6869 46.7066C16.7265 46.9025 16.8235 47.0821 16.9656 47.2226C17.19 47.4319 17.4489 47.6008 17.7308 47.7219C18.2234 47.8729 18.6723 48.1406 19.0392 48.5024C19.2206 48.6772 19.3642 48.8875 19.4609 49.1202C19.5577 49.3528 19.6056 49.6029 19.6016 49.8548C19.6031 50.107 19.5548 50.357 19.4593 50.5904C19.3639 50.8238 19.2232 51.0361 19.0454 51.2149C18.8676 51.3938 18.6562 51.5357 18.4234 51.6325C18.1906 51.7294 17.9409 51.7793 17.6887 51.7793C17.2336 51.7758 16.7943 51.6124 16.4477 51.3175C16.1011 51.0227 15.8693 50.6152 15.793 50.1666L16.1373 50.0423C16.1663 50.2899 16.2542 50.527 16.3935 50.7338C16.5329 50.9405 16.7196 51.1109 16.9383 51.2308C17.1569 51.3506 17.401 51.4164 17.6503 51.4227C17.8995 51.4289 18.1466 51.3755 18.371 51.2668C18.5954 51.1581 18.7905 50.9972 18.94 50.7978C19.0896 50.5983 19.1892 50.3659 19.2307 50.1201C19.2721 49.8742 19.2541 49.622 19.1782 49.3845C19.1023 49.147 18.9707 48.9312 18.7944 48.7549C18.5096 48.4756 18.1713 48.257 17.7996 48.1122Z" fill="white"/>
<path id="Vector_17" d="M23.6688 45.5853V51.7066H23.3034V45.5853H21.6641V45.2218H25.3082V45.5853H23.6688Z" fill="white"/>
<path id="Vector_18" d="M28.2219 45.2218V51.7009H27.8584V45.2218H28.2219Z" fill="white"/>
<path id="Vector_19" d="M31.5937 45.2218L34.027 49.4303L36.4564 45.2218H36.8734L36.8581 45.2505V51.7009H36.4928V45.8818L34.027 50.1495L31.5574 45.8818V51.7009H31.1901V45.2505L31.1748 45.2218H31.5937Z" fill="white"/>
<path id="Vector_20" d="M42.878 49.2179H40.6341L39.7312 51.7047H39.3486L41.7608 45.0745L44.1711 51.7047H43.7886L42.878 49.2179ZM42.7441 48.8544L41.7551 46.1361L40.768 48.8544H42.7441Z" fill="white"/>
<path id="Vector_21" d="M47.9383 45.5853V51.7066H47.573V45.5853H45.9336V45.2218H49.5777V45.5853H47.9383Z" fill="white"/>
<path id="Vector_22" d="M52.4914 45.2218V51.7009H52.1279V45.2218H52.4914Z" fill="white"/>
<path id="Vector_23" d="M55.4463 45.2218H55.8461L59.1746 50.9836V45.2218H59.54V51.7009H59.1746L55.8098 45.8818V51.7009H55.4463V45.2218Z" fill="white"/>
<path id="Vector_24" d="M67.835 50.8936C67.5436 51.1805 67.198 51.4064 66.8183 51.5582C66.4386 51.7099 66.0324 51.7844 65.6236 51.7774C65.0847 51.7775 64.554 51.6464 64.0772 51.3953C63.6004 51.1442 63.1919 50.7808 62.8872 50.3364C62.5824 49.892 62.3905 49.38 62.328 48.8448C62.2656 48.3096 62.3344 47.7672 62.5287 47.2646C62.7229 46.762 63.0367 46.3142 63.4429 45.9601C63.8491 45.606 64.3354 45.3562 64.8598 45.2322C65.3842 45.1083 65.9309 45.114 66.4526 45.2488C66.9744 45.3836 67.4554 45.6435 67.8541 46.006L67.5786 46.2586C67.1586 45.8874 66.6413 45.6438 66.0876 45.5565C65.5339 45.4692 64.9668 45.5418 64.4529 45.7658C63.939 45.9897 63.4998 46.3557 63.1868 46.8208C62.8738 47.2858 62.7001 47.8305 62.686 48.3909C62.672 48.9513 62.8182 49.504 63.1076 49.9841C63.3969 50.4642 63.8173 50.8518 64.3193 51.1012C64.8213 51.3505 65.3841 51.4514 65.9415 51.392C66.4988 51.3325 67.0277 51.1151 67.4658 50.7654V48.7894H67.8292L67.835 50.8936Z" fill="white"/>
<path id="Vector_25" d="M77.849 43.7393H0.201059C0.150325 43.7393 0.101668 43.7191 0.065794 43.6833C0.0299195 43.6474 0.00976562 43.5987 0.00976562 43.548C0.00976562 43.4972 0.0299195 43.4486 0.065794 43.4127C0.101668 43.3768 0.150325 43.3567 0.201059 43.3567H77.8662C77.9169 43.3567 77.9656 43.3768 78.0014 43.4127C78.0373 43.4486 78.0575 43.4972 78.0575 43.548C78.0575 43.5987 78.0373 43.6474 78.0014 43.6833C77.9656 43.7191 77.9169 43.7393 77.8662 43.7393H77.849Z" fill="white"/>
</g>
<defs>
<clipPath id="clip0_688_395">
<rect width="78.0401" height="51.7774" fill="white"/>
</clipPath>
</defs>
</svg>
